<svg width="476" height="476" viewBox="0 0 476 476" fill="none" xmlns="http://www.w3.org/2000/svg">
<g clip-path="url(#clip0)">
<path d="M273.372 302.498C268.331 295.736 262.764 289.453 256.672 283.656C250.581 277.852 244.489 272.568 238.401 267.811C232.309 263.054 226.742 258.482 221.699 254.102C216.657 249.728 212.564 245.157 209.424 240.4C206.284 235.643 204.713 230.79 204.713 225.842C204.713 218.987 206.903 212.564 211.28 206.568C215.657 200.572 220.987 194.769 227.266 189.151C233.546 183.534 239.825 177.398 246.11 170.736C252.386 164.071 257.714 155.271 262.095 144.324C266.468 133.38 268.658 120.866 268.658 106.782C268.658 90.032 264.945 73.947 257.522 58.532C250.099 43.114 239.632 31.12 226.117 22.556H264.657L303.2 0H178.441C160.742 0 142.943 1.906 125.057 5.72C98.6038 11.62 76.3338 25.088 58.2508 46.117C40.1708 67.15 31.1288 90.99 31.1288 117.637C31.1288 145.808 41.2668 169.22 61.5348 187.87C81.8038 206.519 106.12 215.848 134.48 215.848C140.19 215.848 146.851 215.37 154.465 214.421C154.084 215.942 153.422 217.988 152.468 220.557C151.514 223.126 150.753 225.177 150.182 226.697C149.612 228.218 149.135 230.072 148.757 232.263C148.375 234.453 148.186 236.691 148.186 238.973C148.186 251.536 154.272 265.717 166.457 281.514C151.992 281.901 137.72 283.184 123.632 285.374C109.548 287.564 94.7988 290.99 79.3798 295.654C63.9628 300.315 50.1628 307.074 37.9838 315.924C25.8018 324.778 16.6668 335.29 10.5758 347.473C3.53277 361.559 0.00976562 374.405 0.00976562 386.017C0.00976562 398.768 2.86677 410.331 8.57477 420.707C14.2828 431.076 21.6098 439.549 30.5568 446.113C39.5018 452.683 49.8298 458.196 61.5348 462.675C73.2388 467.145 84.8498 470.334 96.3638 472.237C107.88 474.14 119.252 475.091 130.483 475.091C181.49 475.091 221.464 462.627 250.392 437.694C277.04 414.471 290.363 387.632 290.363 357.177C290.363 346.322 288.793 336.193 285.651 326.768C282.51 317.337 278.42 309.254 273.372 302.498ZM163.311 198.722C153.604 198.722 144.374 196.247 135.617 191.296C126.86 186.346 119.437 179.922 113.347 172.023C107.259 164.125 101.929 155.227 97.3598 145.328C92.7928 135.432 89.4158 125.536 87.2248 115.636C85.0348 105.741 83.9408 96.318 83.9408 87.371C83.9408 69.1 88.7948 53.397 98.5028 40.263C108.208 27.129 121.914 20.562 139.615 20.562C152.178 20.562 163.55 24.461 173.733 32.266C183.916 40.07 191.91 49.967 197.717 61.958C203.519 73.949 207.994 86.365 211.134 99.215C214.274 112.062 215.845 124.198 215.845 135.618C215.845 154.654 211.706 169.935 203.426 181.451C195.144 192.964 181.775 198.722 163.311 198.722ZM242.251 413.123C237.021 422.072 229.932 429.063 220.984 434.104C212.038 439.152 202.475 442.862 192.291 445.244C182.108 447.629 171.402 448.816 160.171 448.816C147.989 448.816 135.901 447.385 123.913 444.532C111.923 441.681 100.454 437.345 89.5098 431.541C78.5658 425.741 69.7148 417.743 62.9588 407.559C56.2018 397.375 52.8238 385.815 52.8238 372.869C52.8238 361.45 55.3918 351.268 60.5318 342.319C65.6738 333.374 72.2408 326.235 80.2338 320.911C88.2278 315.579 97.5528 311.198 108.213 307.78C118.873 304.347 129.15 301.972 139.046 300.641C148.941 299.306 159.031 298.646 169.308 298.646C175.591 298.646 180.351 298.837 183.585 299.213C184.728 299.98 187.628 301.972 192.293 305.209C196.958 308.446 200.097 310.637 201.716 311.779C203.331 312.916 206.283 315.105 210.566 318.342C214.847 321.579 217.893 324.003 219.701 325.621C221.504 327.239 224.122 329.666 227.55 332.9C230.974 336.137 233.498 338.943 235.116 341.322C236.731 343.7 238.732 346.602 241.112 350.024C243.492 353.457 245.155 356.739 246.11 359.879C247.058 363.021 247.964 366.446 248.817 370.156C249.672 373.876 250.1 377.725 250.1 381.726C250.105 393.713 247.487 404.182 242.251 413.123Z" fill="#2EB398"/>
<path d="M401.998 73.089V0H365.449V73.089H292.358V109.636H365.449V182.725H401.998V109.636H475.081V73.089H401.998Z" fill="#2EB398"/>
</g>
<defs>
<clipPath id="clip0">
<rect width="475.092" height="475.092" fill="white"/>
</clipPath>
</defs>
</svg>
