<svg width="487" height="487" viewBox="0 0 487 487" fill="none" xmlns="http://www.w3.org/2000/svg">
<g clip-path="url(#clip0)">
<path d="M430.149 135.248C416.865 39.125 321.076 -9.818 218.873 1.642C138.071 10.701 57.5121 76.03 54.1681 169.447C52.1311 226.476 68.3041 269.248 122.567 281.287C146.066 239.701 114.998 230.611 110.134 200.485C90.2221 77.367 252.16 -6.71799 336.975 79.313C395.707 138.896 357.008 322.083 262.405 303.023C171.784 284.844 306.788 139.018 234.468 110.412C175.675 87.126 144.455 181.547 172.331 228.484C155.976 309.195 120.774 385.193 135.031 486.393C181.238 452.832 196.833 388.659 209.601 321.689C232.826 335.825 245.26 350.447 274.869 352.727C384.064 361.207 445.136 243.713 430.149 135.248Z" fill="#2EB398"/>
</g>
<defs>
<clipPath id="clip0">
<rect width="486.392" height="486.392" fill="white"/>
</clipPath>
</defs>
</svg>
