<svg width="431" height="431" viewBox="0 0 431 431" fill="none" xmlns="http://www.w3.org/2000/svg">
<g clip-path="url(#clip0)">
<path d="M158.081 83.3C158.081 94.139 158.081 142.518 158.081 142.518H114.696V214.93H158.081V430.113H247.203V214.936H307.008C307.008 214.936 312.609 180.215 315.324 142.251C307.54 142.251 247.54 142.251 247.54 142.251C247.54 142.251 247.54 100.124 247.54 92.74C247.54 85.34 257.257 75.386 266.861 75.386C276.447 75.386 296.679 75.386 315.418 75.386C315.418 65.527 315.418 31.462 315.418 0.000999709C290.402 0.000999709 261.942 0.000999709 249.397 0.000999709C155.878 -0.00400029 158.081 72.48 158.081 83.3Z" fill="#2EB398"/>
</g>
<defs>
<clipPath id="clip0">
<rect width="430.113" height="430.114" fill="white"/>
</clipPath>
</defs>
</svg>
