<svg width="431" height="431" viewBox="0 0 431 431" fill="none" xmlns="http://www.w3.org/2000/svg">
<g clip-path="url(#clip0)">
<path d="M430.117 261.543V420.56H337.929V272.193C337.929 234.922 324.595 209.486 291.226 209.486C265.753 209.486 250.594 226.628 243.925 243.21C241.493 249.138 240.867 257.389 240.867 265.687V420.56H148.648C148.648 420.56 149.89 169.275 148.648 143.24H240.858V182.549C240.671 182.843 240.428 183.16 240.252 183.445H240.858V182.549C253.109 163.68 274.988 136.725 323.96 136.725C384.633 136.724 430.117 176.361 430.117 261.543ZM52.183 9.558C20.635 9.558 0 30.251 0 57.463C0 84.082 20.038 105.403 50.959 105.403H51.575C83.734 105.403 103.734 84.086 103.734 57.463C103.128 30.251 83.734 9.558 52.183 9.558ZM5.477 420.56H97.661V143.24H5.477V420.56Z" fill="#2EB398"/>
</g>
<defs>
<clipPath id="clip0">
<rect width="430.117" height="430.117" fill="white"/>
</clipPath>
</defs>
</svg>
