<svg width="612" height="612" viewBox="0 0 612 612" fill="none" xmlns="http://www.w3.org/2000/svg">
<g clip-path="url(#clip0)">
<path d="M612 116.258C589.475 126.239 565.306 133.008 539.912 136.03C565.841 120.503 585.689 95.875 595.096 66.619C570.774 80.998 543.927 91.439 515.321 97.099C492.414 72.662 459.831 57.441 423.691 57.441C354.357 57.441 298.14 113.658 298.14 182.954C298.14 192.782 299.249 202.381 301.391 211.56C197.065 206.32 104.556 156.337 42.641 80.386C31.818 98.896 25.661 120.464 25.661 143.487C25.661 187.046 47.842 225.48 81.496 247.966C60.921 247.278 41.57 241.618 24.629 232.21V233.778C24.629 294.584 67.92 345.332 125.322 356.882C114.805 359.712 103.715 361.28 92.242 361.28C84.135 361.28 76.295 360.477 68.608 358.947C84.593 408.854 130.944 445.146 185.861 446.141C142.914 479.795 88.762 499.796 29.945 499.796C19.811 499.796 9.82898 499.184 0.000976562 498.075C55.568 533.756 121.537 554.56 192.439 554.56C423.387 554.56 549.627 363.269 549.627 197.372L549.206 181.119C573.872 163.526 595.211 141.422 612 116.258Z" fill="#2EB398"/>
</g>
<defs>
<clipPath id="clip0">
<rect width="612" height="612" fill="white"/>
</clipPath>
</defs>
</svg>
