<svg width="512" height="446" viewBox="0 0 512 446" fill="none" xmlns="http://www.w3.org/2000/svg">
<path d="M9.00006 213.8L127 257.8L172.7 404.7C175.6 414.1 187.1 417.6 194.8 411.3L260.6 357.7C267.5 352.1 277.3 351.8 284.5 357L403 443.1C411.2 449 422.7 444.6 424.8 434.7L511.7 16.8C513.9 5.99998 503.3 -3.00002 493.1 0.999985L8.90006 187.7C-2.99994 192.3 -2.89994 209.3 9.00006 213.8ZM165.3 234.3L395.9 92.3C400 89.8 404.3 95.4 400.7 98.7L210.5 275.6C203.8 281.8 199.5 290.2 198.3 299.2L191.8 347.2C190.9 353.6 181.9 354.3 180.2 348L155.3 260.4C152.3 250.5 156.5 239.8 165.3 234.3Z" fill="#F09494"/>
</svg>
