<svg width="513" height="294" viewBox="0 0 513 294" fill="none" xmlns="http://www.w3.org/2000/svg">
<path d="M509.3 264.8C508.7 263.5 508.1 262.4 507.6 261.5C498.7 245.5 481.7 225.9 456.7 202.6L456.2 202.1L455.9 201.8L455.6 201.5H455.3C443.9 190.7 436.7 183.4 433.7 179.6C428.2 172.5 426.9 165.3 430 158C432.1 152.5 440.1 140.9 454 123.1C461.3 113.7 467.1 106.1 471.3 100.4C502 59.5 515.4 33.4 511.3 22L509.7 19.3C508.6 17.7 505.9 16.2 501.4 14.9C497 13.6 491.3 13.3 484.3 14.2L407.5 14.7C406.3 14.3 404.5 14.3 402.2 14.8C399.9 15.3 398.7 15.6 398.7 15.6L397.4 16.3L396.3 17.1C395.4 17.6 394.4 18.6 393.4 19.9C392.3 21.2 391.5 22.8 390.7 24.6C382.3 46.1 372.8 66.1 362.2 84.6C355.6 95.6 349.6 105.2 344.1 113.3C338.6 121.4 334 127.3 330.2 131.2C326.5 135 323.1 138.1 320.1 140.4C317.1 142.7 314.8 143.7 313.2 143.3C311.6 142.9 310.1 142.6 308.7 142.2C306.2 140.6 304.2 138.4 302.7 135.7C301.2 132.9 300.2 129.5 299.6 125.3C299.1 121.1 298.8 117.5 298.7 114.5C298.6 111.5 298.7 107.2 298.8 101.7C299 96.2 299.1 92.5 299.1 90.5C299.1 83.7 299.2 76.4 299.5 68.5C299.8 60.6 300 54.3 300.2 49.7C300.4 45.1 300.5 40.2 300.5 35C300.5 29.8 300.2 25.8 299.6 22.9C299 20 298 17.1 296.8 14.4C295.6 11.6 293.7 9.50001 291.3 8.00001C288.9 6.50001 285.9 5.30001 282.4 4.40001C273 2.30001 261 1.10001 246.4 0.900005C213.3 0.500005 192.1 2.70001 182.7 7.30001C179 9.30001 175.6 11.9 172.6 15.3C169.4 19.2 169 21.3 171.3 21.7C182 23.3 189.5 27.1 194 33.2L195.6 36.4C196.8 38.7 198.1 42.8 199.3 48.7C200.5 54.6 201.3 61.1 201.7 68.2C202.6 81.2 202.6 92.3 201.7 101.5C200.8 110.7 200 117.9 199.2 123.1C198.4 128.3 197.2 132.4 195.6 135.6C194 138.8 192.9 140.8 192.4 141.5C191.9 142.2 191.4 142.7 191.1 142.8C188.8 143.7 186.4 144.1 183.9 144.1C181.4 144.1 178.4 142.9 174.8 140.4C171.2 137.9 167.6 134.5 163.7 130.1C159.9 125.7 155.6 119.7 150.8 111.8C146 104 141 94.7 135.9 84.1L131.6 76.4C128.9 71.4 125.3 64.2 120.7 54.7C116.1 45.2 112 36 108.4 27.1C107 23.4 104.8 20.5 102 18.6L100.7 17.8C99.8 17.1 98.4 16.3 96.4 15.5C94.4 14.7 92.4 14.1 90.3 13.8L17.3 14.3C9.8 14.3 4.8 16 2.1 19.4L0.8 21C0.3 21.9 0 23.3 0 25.3C0 27.3 0.5 29.7 1.6 32.5C12.3 57.5 23.9 81.7 36.4 105C48.9 128.3 59.8 147 69.1 161.2C78.3 175.4 87.8 188.8 97.4 201.5C107 214.1 113.4 222.2 116.5 225.8C119.6 229.4 122.1 232 123.8 233.8L130.5 240.2C134.8 244.5 141 249.6 149.3 255.5C157.6 261.5 166.7 267.3 176.8 273.1C186.8 278.9 198.5 283.6 211.9 287.2C225.2 290.8 238.2 292.3 250.8 291.6H281.5C287.7 291.1 292.4 289.1 295.6 285.7L296.7 284.4C297.4 283.3 298.1 281.7 298.7 279.5C299.3 277.3 299.6 274.8 299.6 272.2C299.4 264.6 300 257.7 301.3 251.5C302.6 245.4 304.1 240.8 305.8 237.6C307.5 234.5 309.4 231.9 311.5 229.7C313.6 227.6 315.1 226.3 316 225.8C316.9 225.4 317.6 225 318.1 224.9C322.4 223.5 327.4 224.9 333.2 229C339 233.2 344.4 238.3 349.5 244.5C354.6 250.6 360.7 257.5 367.8 265.2C374.9 272.8 381.1 278.5 386.5 282.3L391.8 285.5C395.4 287.6 400 289.6 405.7 291.4C411.4 293.2 416.4 293.6 420.6 292.7L488.8 291.6C495.5 291.6 500.8 290.5 504.5 288.3C508.2 286.1 510.5 283.6 511.2 281C511.9 278.3 512 275.3 511.3 271.9C510.5 268.5 509.9 266.1 509.3 264.8Z" fill="#F09494"/>
</svg>
