<svg width="22" height="6" viewBox="0 0 22 6" fill="none" xmlns="http://www.w3.org/2000/svg">
<path d="M3 6C4.65685 6 6 4.65685 6 3C6 1.34315 4.65685 0 3 0C1.34315 0 0 1.34315 0 3C0 4.65685 1.34315 6 3 6Z" fill="url(#paint0_linear)"/>
<path d="M11 6C12.6569 6 14 4.65685 14 3C14 1.34315 12.6569 0 11 0C9.34315 0 8 1.34315 8 3C8 4.65685 9.34315 6 11 6Z" fill="url(#paint1_linear)"/>
<path d="M19 6C20.6569 6 22 4.65685 22 3C22 1.34315 20.6569 0 19 0C17.3431 0 16 1.34315 16 3C16 4.65685 17.3431 6 19 6Z" fill="url(#paint2_linear)"/>
<defs>
<linearGradient id="paint0_linear" x1="6.24861" y1="4.90232" x2="-1.70951" y2="4.40957" gradientUnits="userSpaceOnUse">
<stop stop-color="#DADAFF"/>
<stop offset="1" stop-color="#EEEEFF" stop-opacity="0"/>
</linearGradient>
<linearGradient id="paint1_linear" x1="14.2486" y1="4.90232" x2="6.29049" y2="4.40957" gradientUnits="userSpaceOnUse">
<stop stop-color="#DADAFF"/>
<stop offset="1" stop-color="#EEEEFF" stop-opacity="0"/>
</linearGradient>
<linearGradient id="paint2_linear" x1="22.2486" y1="4.90232" x2="14.2905" y2="4.40957" gradientUnits="userSpaceOnUse">
<stop stop-color="#DADAFF"/>
<stop offset="1" stop-color="#EEEEFF" stop-opacity="0"/>
</linearGradient>
</defs>
</svg>
