<svg width="20" height="20" viewBox="0 0 20 20" fill="none" xmlns="http://www.w3.org/2000/svg">
<path fill-rule="evenodd" clip-rule="evenodd" d="M10 20C15.5228 20 20 15.5228 20 10C20 4.47715 15.5228 0 10 0C4.47715 0 0 4.47715 0 10C0 15.5228 4.47715 20 10 20ZM4.989 12.712C5.517 12.988 6.111 13.126 6.771 13.126C7.347 13.126 7.866 13.024 8.328 12.82C8.79 12.616 9.174 12.322 9.48 11.938L8.346 10.912C7.938 11.404 7.443 11.65 6.861 11.65C6.519 11.65 6.213 11.575 5.943 11.425C5.679 11.275 5.472 11.065 5.322 10.795C5.178 10.519 5.106 10.204 5.106 9.85C5.106 9.496 5.178 9.184 5.322 8.914C5.472 8.638 5.679 8.425 5.943 8.275C6.213 8.125 6.519 8.05 6.861 8.05C7.443 8.05 7.938 8.296 8.346 8.788L9.48 7.762C9.174 7.378 8.79 7.084 8.328 6.88C7.866 6.676 7.347 6.574 6.771 6.574C6.111 6.574 5.517 6.715 4.989 6.997C4.467 7.273 4.056 7.66 3.756 8.158C3.456 8.656 3.306 9.22 3.306 9.85C3.306 10.48 3.456 11.044 3.756 11.542C4.056 12.04 4.467 12.43 4.989 12.712ZM14.217 13L16.917 6.7H15.153L13.407 10.804L11.697 6.7H9.77095L12.462 13H14.217Z" fill="#707070"/>
</svg>
