<svg width="36" height="35" viewBox="0 0 36 35" fill="none" xmlns="http://www.w3.org/2000/svg">
<path d="M23.71 34.689C23.538 34.751 23.365 34.826 23.188 34.857C22.51 34.978 22.076 34.628 22.072 33.935C22.063 32.648 22.063 31.363 22.084 30.076C22.106 28.596 22.072 27.135 20.945 25.914C21.615 25.794 22.211 25.71 22.794 25.576C26.656 24.689 28.662 22.253 28.918 18.21C29.049 16.152 28.682 14.264 27.314 12.643C27.215 12.529 27.21 12.27 27.257 12.104C27.621 10.764 27.515 9.45505 27.091 8.14505C26.986 7.81805 26.812 7.71705 26.489 7.73805C25.355 7.80105 24.316 8.19905 23.4 8.81105C22.517 9.40405 21.695 9.53305 20.646 9.29305C18.336 8.77205 16.011 8.92405 13.706 9.45805C13.445 9.52005 13.094 9.43705 12.855 9.29705C11.773 8.66305 10.691 8.04705 9.443 7.80105C8.478 7.61305 8.394 7.66105 8.138 8.59405C7.816 9.77005 7.784 10.947 8.113 12.13C8.16 12.302 8.111 12.578 7.996 12.705C5.439 15.558 6.365 20.949 8.088 23.014C9.428 24.618 11.208 25.34 13.184 25.715C13.529 25.779 13.872 25.828 14.217 25.888C13.921 26.658 13.655 27.385 13.354 28.1C13.295 28.238 13.108 28.354 12.955 28.412C11.017 29.164 9.351 28.611 8.242 26.852C7.649 25.914 6.888 25.213 5.754 25.01C5.718 25.003 5.681 24.984 5.648 24.989C5.343 25.069 5.041 25.153 4.737 25.235C4.908 25.473 5.029 25.793 5.258 25.936C6.219 26.544 6.844 27.411 7.257 28.434C7.906 30.038 9.166 30.753 10.803 30.893C11.602 30.958 12.409 30.903 13.284 30.903C13.284 31.899 13.32 33.036 13.269 34.168C13.243 34.778 12.63 35.022 11.896 34.772C9.949 34.106 8.144 33.151 6.585 31.809C0.955996 26.96 -1.214 20.83 0.656996 13.655C2.522 6.50305 7.383 2.11605 14.651 0.739047C24.708 -1.16295 34.235 6.16105 35.233 16.37C36.021 24.418 31.284 31.949 23.71 34.689ZM14.229 25.85C14.223 25.864 14.219 25.874 14.213 25.888C14.231 25.891 14.249 25.894 14.268 25.897C14.282 25.898 14.294 25.923 14.229 25.85ZM9.679 29.031C9.836 29.128 9.986 29.251 10.156 29.304C10.218 29.324 10.333 29.183 10.536 29.033C10.254 28.926 10.088 28.832 9.913 28.808C9.845 28.8 9.757 28.953 9.679 29.031ZM11.112 29.277C11.135 29.382 11.344 29.513 11.467 29.511C11.586 29.509 11.702 29.351 11.821 29.261C11.713 29.162 11.605 29.066 11.273 28.767C11.201 28.975 11.082 29.143 11.112 29.277ZM12.87 28.854C12.722 28.889 12.597 29.026 12.462 29.12C12.541 29.22 12.62 29.313 12.747 29.47C12.922 29.31 13.041 29.199 13.161 29.091C13.061 29.004 12.944 28.836 12.87 28.854ZM8.512 28.261C8.594 28.416 8.721 28.55 8.893 28.769C9.008 28.581 9.133 28.437 9.111 28.408C9.002 28.265 8.854 28.148 8.708 28.041C8.698 28.033 8.495 28.227 8.512 28.261Z" fill="#707070"/>
</svg>
