<svg width="16" height="7" viewBox="0 0 16 7" fill="none" xmlns="http://www.w3.org/2000/svg">
<path d="M0.157327 6.46715C-0.145747 5.93676 0.00224483 5.23845 0.487877 4.90744L7.43477 0.172395C7.9204 -0.158615 8.55977 0.00301907 8.86285 0.533414C9.16592 1.06381 9.01793 1.76212 8.5323 2.09313L1.58541 6.82817C1.09977 7.15918 0.460401 6.99755 0.157327 6.46715Z" fill="#707070"/>
<path d="M7.12982 0.534294C7.43216 0.00340159 8.07131 -0.159282 8.5574 0.17093L15.5108 4.89456C15.9969 5.22477 16.1458 5.92283 15.8435 6.45372C15.5412 6.98462 14.902 7.1473 14.4159 6.81709L7.46251 2.09346C6.97642 1.76325 6.82747 1.06519 7.12982 0.534294Z" fill="#707070"/>
</svg>
